<?xml version="1.0" standalone="no"?>
<!DOCTYPE svg PUBLIC "-//W3C//DTD SVG 20010904//EN"
 "http://www.w3.org/TR/2001/REC-SVG-20010904/DTD/svg10.dtd">
<svg version="1.0" xmlns="http://www.w3.org/2000/svg"
 width="100.000000pt" height="100.000000pt" viewBox="0 0 100.000000 100.000000"
 preserveAspectRatio="xMidYMid meet">

<g transform="translate(0.000000,100.000000) scale(0.100000,-0.100000)"
fill="#000000" stroke="none">
<path d="M309 965 c-14 -8 -33 -25 -42 -38 -16 -24 -39 -36 -115 -56 -48 -13
-62 -36 -62 -100 0 -30 -7 -44 -40 -76 -44 -43 -46 -53 -28 -120 10 -38 10
-50 -5 -80 -15 -32 -16 -39 -2 -65 8 -16 19 -31 25 -35 5 -3 28 -42 51 -85 93
-180 274 -290 475 -290 130 0 241 48 331 142 44 47 103 138 89 138 -3 0 -25
-13 -49 -30 -45 -30 -97 -54 -104 -47 -2 2 15 17 38 32 76 54 129 155 129 249
l0 51 -29 -50 c-16 -27 -39 -59 -51 -70 l-22 -20 23 45 c34 65 38 163 10 218
-12 23 -23 42 -25 42 -2 0 1 -20 7 -44 21 -93 -41 -247 -132 -327 l-44 -39 32
0 c17 0 48 7 68 15 58 24 50 9 -18 -35 -61 -39 -141 -70 -183 -70 -18 0 -19
-2 -5 -15 8 -9 37 -24 65 -35 l49 -19 -71 -1 c-62 0 -80 5 -141 35 -39 19 -92
54 -118 77 -42 37 -47 39 -40 18 3 -14 14 -36 24 -50 46 -66 33 -68 -37 -5
-70 63 -96 127 -90 223 6 85 35 137 103 184 62 42 88 43 195 7 95 -32 206 -47
253 -35 63 15 75 78 28 143 -68 94 -186 163 -316 186 -44 8 -93 22 -110 31
-37 19 -81 20 -116 1z m330 -189 c8 -10 8 -16 -2 -24 -17 -14 -42 2 -34 22 8
20 21 20 36 2z"/>
</g>
</svg>
